<svg width="705.000000" height="628.000000" viewBox="0 0 705 628" fill="none" xmlns="http://www.w3.org/2000/svg" xmlns:xlink="http://www.w3.org/1999/xlink">
	<desc>
			Created with Pixso.
	</desc>
	<defs>
		<filter id="filter_194_201_dd" x="0.000000" y="0.000000" width="705.000000" height="628.000000" filterUnits="userSpaceOnUse" color-interpolation-filters="sRGB">
			<feFlood flood-opacity="0" result="BackgroundImageFix"/>
			<feColorMatrix in="SourceAlpha" type="matrix" values="0 0 0 0 0 0 0 0 0 0 0 0 0 0 0 0 0 0 127 0" result="hardAlpha"/>
			<feOffset dx="4" dy="52"/>
			<feGaussianBlur stdDeviation="28"/>
			<feComposite in2="hardAlpha" operator="out" k2="-1" k3="1"/>
			<feColorMatrix type="matrix" values="0 0 0 0 0 0 0 0 0 0 0 0 0 0 0 0 0 0 0.25 0"/>
			<feBlend mode="normal" in2="BackgroundImageFix" result="effect_dropShadow_1"/>
			<feBlend mode="normal" in="SourceGraphic" in2="effect_dropShadow_1" result="shape"/>
		</filter>
		<clipPath id="clip194_241">
			<rect id="cursor-line" width="77.000000" height="77.000000" transform="translate(527.644775 408.464844) rotate(-18.803560)" fill="white" fill-opacity="0"/>
		</clipPath>
	</defs>
	<g filter="url(#filter_194_201_dd)">
		<rect id="Прямоугольник 96" x="80.000000" y="32.000000" rx="20.000000" width="537.000000" height="460.000000" fill="#FFFFFF" fill-opacity="1.000000"/>
		<rect id="Прямоугольник 96" x="80.500000" y="32.500000" rx="20.000000" width="536.000000" height="459.000000" stroke="#DDDCDC" stroke-opacity="1.000000" stroke-width="1.000000"/>
	</g>
	<path id="1 подход" d="M125.73 184.41C126.18 184.6 126.66 184.7 127.17 184.7C127.68 184.7 128.16 184.6 128.61 184.41C129.05 184.21 129.44 183.95 129.78 183.61C130.12 183.27 130.38 182.88 130.58 182.43C130.77 181.98 130.87 181.5 130.87 180.99C130.87 180.48 130.77 180 130.58 179.56C130.38 179.11 130.12 178.72 129.78 178.38C129.44 178.04 129.05 177.78 128.61 177.59C128.16 177.39 127.68 177.3 127.17 177.3C126.66 177.3 126.18 177.39 125.73 177.59C125.28 177.78 124.89 178.04 124.55 178.38C124.21 178.72 123.95 179.11 123.76 179.56C123.56 180 123.47 180.48 123.47 180.99C123.47 181.5 123.56 181.98 123.76 182.43C123.95 182.88 124.21 183.27 124.55 183.61C124.89 183.95 125.28 184.21 125.73 184.41ZM146.96 184.41C147.41 184.6 147.89 184.7 148.4 184.7C148.91 184.7 149.39 184.6 149.84 184.41C150.28 184.21 150.67 183.95 151.01 183.61C151.35 183.27 151.61 182.88 151.81 182.43C152 181.98 152.1 181.5 152.1 180.99C152.1 180.48 152 180 151.81 179.56C151.61 179.11 151.35 178.72 151.01 178.38C150.67 178.04 150.28 177.78 149.84 177.59C149.39 177.39 148.91 177.3 148.4 177.3C147.89 177.3 147.41 177.39 146.96 177.59C146.51 177.78 146.12 178.04 145.78 178.38C145.44 178.72 145.18 179.11 144.99 179.56C144.79 180 144.7 180.48 144.7 180.99C144.7 181.5 144.79 181.98 144.99 182.43C145.18 182.88 145.44 183.27 145.78 183.61C146.12 183.95 146.51 184.21 146.96 184.41ZM109.16 180.03L109.8 179.22L109.8 184.5L111.13 184.5L111.13 177.5L109.8 177.5L108.28 179.47L109.16 180.03ZM122.7 177.5L116.43 177.5L116.43 184.5L117.76 184.5L117.76 178.69L121.36 178.69L121.36 184.5L122.7 184.5L122.7 177.5ZM130.88 183.37L130.59 183.37L130.59 185.6L131.93 185.6L131.93 184.5L136.63 184.5L136.63 185.6L137.96 185.6L137.96 183.29L137.36 183.29L137.36 177.5L132.92 177.5L131.69 182.47C131.62 182.72 131.53 182.93 131.42 183.11C131.31 183.28 131.13 183.37 130.88 183.37ZM138.21 177.5L140.85 180.99L138.21 184.5L139.75 184.5L141.62 182.03L143.49 184.5L145.03 184.5L142.39 180.99L145.03 177.5L143.49 177.5L141.62 179.95L139.75 177.5L138.21 177.5ZM152.11 183.37L151.82 183.37L151.82 185.6L153.16 185.6L153.16 184.5L157.86 184.5L157.86 185.6L159.19 185.6L159.19 183.29L158.59 183.29L158.59 177.5L154.14 177.5L152.92 182.47C152.85 182.72 152.76 182.93 152.65 183.11C152.54 183.28 152.36 183.37 152.11 183.37ZM124.97 181.95C124.86 181.65 124.8 181.33 124.8 180.99Q124.8 180.54 124.94 180.13Q124.96 180.09 124.97 180.04C125.1 179.74 125.26 179.49 125.47 179.27C125.68 179.05 125.93 178.87 126.22 178.75C126.51 178.62 126.83 178.56 127.17 178.56Q127.64 178.56 128.04 178.72Q128.08 178.73 128.11 178.75C128.4 178.87 128.65 179.05 128.86 179.27C129.07 179.49 129.23 179.74 129.35 180.04Q129.36 180.08 129.38 180.11Q129.53 180.53 129.53 180.99C129.53 181.33 129.47 181.65 129.35 181.95C129.23 182.25 129.07 182.51 128.86 182.73C128.65 182.95 128.4 183.12 128.11 183.25Q128.08 183.26 128.04 183.27Q127.64 183.44 127.17 183.44C126.83 183.44 126.51 183.37 126.22 183.25C125.93 183.12 125.68 182.95 125.47 182.73C125.26 182.51 125.1 182.25 124.97 181.95ZM146.2 181.95C146.09 181.65 146.03 181.33 146.03 180.99C146.03 180.66 146.09 180.34 146.2 180.04C146.33 179.74 146.49 179.49 146.7 179.27C146.91 179.05 147.16 178.87 147.45 178.75C147.74 178.62 148.06 178.56 148.4 178.56Q148.87 178.56 149.27 178.72Q149.31 178.73 149.34 178.75C149.63 178.87 149.88 179.05 150.09 179.27C150.3 179.49 150.46 179.74 150.58 180.04Q150.59 180.08 150.61 180.11Q150.75 180.53 150.75 180.99C150.75 181.33 150.7 181.65 150.58 181.95C150.46 182.25 150.3 182.51 150.09 182.73C149.88 182.95 149.63 183.12 149.34 183.25Q149.31 183.26 149.27 183.27Q148.87 183.44 148.4 183.44C148.06 183.44 147.74 183.37 147.45 183.25C147.16 183.12 146.91 182.95 146.7 182.73C146.49 182.51 146.33 182.25 146.2 181.95ZM133.95 178.69L136.03 178.69L136.03 183.29L132.78 183.29C132.81 183.24 132.84 183.17 132.85 183.11C132.88 183.04 132.9 182.97 132.92 182.9L133.95 178.69ZM155.18 178.69L157.26 178.69L157.26 183.29L154.01 183.29C154.04 183.24 154.07 183.17 154.08 183.11C154.11 183.04 154.13 182.97 154.14 182.9L155.18 178.69Z" fill="#292929" fill-opacity="1.000000" fill-rule="evenodd"/>
	<path id="2 подход" d="M107.51 240.68C107.39 240.94 107.33 241.24 107.33 241.59L107.33 242.5L112.58 242.5L112.58 241.31L108.83 241.31Q108.86 241.09 108.96 240.9Q109.06 240.74 109.21 240.61C109.42 240.43 109.67 240.26 109.96 240.12C110.25 239.97 110.57 239.83 110.9 239.69C111.23 239.55 111.53 239.39 111.81 239.2C112.09 239.01 112.32 238.78 112.5 238.51C112.69 238.23 112.78 237.89 112.78 237.47Q112.78 237.09 112.65 236.76Q112.62 236.68 112.58 236.6C112.45 236.34 112.26 236.11 112.01 235.92C111.76 235.72 111.45 235.57 111.1 235.46C110.75 235.35 110.35 235.3 109.92 235.3Q109.04 235.3 108.38 235.68Q108.34 235.7 108.3 235.72Q108 235.91 107.75 236.16Q107.44 236.46 107.22 236.86L108.15 237.43C108.36 237.13 108.61 236.91 108.92 236.75Q109.06 236.68 109.21 236.63Q109.55 236.52 109.92 236.52Q110.68 236.52 111.07 236.81C111.32 237.01 111.45 237.26 111.45 237.56C111.45 237.76 111.39 237.94 111.28 238.09C111.16 238.23 111 238.36 110.81 238.48C110.62 238.6 110.4 238.71 110.15 238.81C109.9 238.91 109.65 239.01 109.39 239.13C109.13 239.24 108.88 239.36 108.63 239.5C108.38 239.64 108.16 239.81 107.97 240.01C107.78 240.2 107.62 240.42 107.51 240.68ZM126.95 242.41C127.41 242.6 127.88 242.7 128.39 242.7C128.9 242.7 129.38 242.6 129.83 242.41C130.28 242.21 130.67 241.95 131.01 241.61C131.34 241.27 131.61 240.88 131.8 240.43C131.99 239.98 132.09 239.5 132.09 238.99C132.09 238.48 131.99 238 131.8 237.56C131.61 237.11 131.34 236.72 131.01 236.38C130.67 236.04 130.28 235.78 129.83 235.59C129.38 235.39 128.9 235.3 128.39 235.3C127.88 235.3 127.41 235.39 126.95 235.59C126.5 235.78 126.11 236.04 125.77 236.38C125.44 236.72 125.18 237.11 124.98 237.56C124.79 238 124.69 238.48 124.69 238.99C124.69 239.5 124.79 239.98 124.98 240.43C125.18 240.88 125.44 241.27 125.77 241.61C126.11 241.95 126.5 242.21 126.95 242.41ZM148.18 242.41C148.63 242.6 149.11 242.7 149.62 242.7C150.13 242.7 150.61 242.6 151.06 242.41C151.51 242.21 151.9 241.95 152.24 241.61C152.57 241.27 152.84 240.88 153.03 240.43C153.22 239.98 153.32 239.5 153.32 238.99C153.32 238.48 153.22 238 153.03 237.56C152.84 237.11 152.57 236.72 152.24 236.38C151.9 236.04 151.51 235.78 151.06 235.59C150.61 235.39 150.13 235.3 149.62 235.3C149.11 235.3 148.63 235.39 148.18 235.59C147.73 235.78 147.34 236.04 147 236.38C146.67 236.72 146.41 237.11 146.21 237.56C146.02 238 145.92 238.48 145.92 238.99C145.92 239.5 146.02 239.98 146.21 240.43C146.41 240.88 146.67 241.27 147 241.61C147.34 241.95 147.73 242.21 148.18 242.41ZM123.92 235.5L117.65 235.5L117.65 242.5L118.98 242.5L118.98 236.69L122.58 236.69L122.58 242.5L123.92 242.5L123.92 235.5ZM132.1 241.37L131.81 241.37L131.81 243.6L133.15 243.6L133.15 242.5L137.85 242.5L137.85 243.6L139.18 243.6L139.18 241.29L138.58 241.29L138.58 235.5L134.14 235.5L132.91 240.47C132.84 240.72 132.75 240.93 132.64 241.11C132.53 241.28 132.35 241.37 132.1 241.37ZM139.43 235.5L142.07 238.99L139.43 242.5L140.97 242.5L142.84 240.03L144.71 242.5L146.25 242.5L143.61 238.99L146.25 235.5L144.71 235.5L142.84 237.95L140.97 235.5L139.43 235.5ZM153.33 241.37L153.04 241.37L153.04 243.6L154.38 243.6L154.38 242.5L159.08 242.5L159.08 243.6L160.41 243.6L160.41 241.29L159.81 241.29L159.81 235.5L155.37 235.5L154.14 240.47C154.07 240.72 153.98 240.93 153.87 241.11C153.77 241.28 153.58 241.37 153.33 241.37ZM126.2 239.95C126.08 239.65 126.02 239.33 126.02 238.99Q126.02 238.54 126.17 238.13Q126.18 238.09 126.2 238.04C126.32 237.74 126.49 237.49 126.7 237.27C126.91 237.05 127.16 236.87 127.44 236.75C127.74 236.62 128.05 236.56 128.39 236.56Q128.86 236.56 129.27 236.72Q129.3 236.73 129.34 236.75C129.63 236.87 129.88 237.05 130.09 237.27C130.3 237.49 130.46 237.74 130.57 238.04Q130.59 238.08 130.6 238.11Q130.75 238.53 130.75 238.99C130.75 239.33 130.69 239.65 130.57 239.95C130.46 240.25 130.3 240.51 130.09 240.73C129.88 240.95 129.63 241.12 129.34 241.25Q129.3 241.26 129.27 241.27Q128.86 241.44 128.39 241.44C128.05 241.44 127.74 241.37 127.44 241.25C127.16 241.12 126.91 240.95 126.7 240.73C126.49 240.51 126.32 240.25 126.2 239.95ZM147.43 239.95C147.31 239.65 147.25 239.33 147.25 238.99C147.25 238.66 147.31 238.34 147.43 238.04C147.55 237.74 147.72 237.49 147.92 237.27C148.14 237.05 148.39 236.87 148.67 236.75C148.97 236.62 149.28 236.56 149.62 236.56Q150.09 236.56 150.5 236.72Q150.53 236.73 150.57 236.75C150.86 236.87 151.11 237.05 151.32 237.27C151.53 237.49 151.69 237.74 151.8 238.04Q151.82 238.08 151.83 238.11Q151.98 238.53 151.98 238.99C151.98 239.33 151.92 239.65 151.8 239.95C151.69 240.25 151.53 240.51 151.32 240.73C151.11 240.95 150.86 241.12 150.57 241.25Q150.53 241.26 150.5 241.27Q150.09 241.44 149.62 241.44C149.28 241.44 148.97 241.37 148.67 241.25C148.39 241.12 148.14 240.95 147.92 240.73C147.72 240.51 147.55 240.25 147.43 239.95ZM135.17 236.69L137.25 236.69L137.25 241.29L134 241.29C134.03 241.24 134.06 241.17 134.08 241.11C134.1 241.04 134.12 240.97 134.14 240.9L135.17 236.69ZM156.4 236.69L158.48 236.69L158.48 241.29L155.23 241.29C155.26 241.24 155.29 241.17 155.31 241.11C155.33 241.04 155.35 240.97 155.37 240.9L156.4 236.69Z" fill="#292929" fill-opacity="1.000000" fill-rule="evenodd"/>
	<rect id="Прямоугольник 72" x="195.963379" y="162.000000" rx="19.000000" width="171.269104" height="38.000000" fill="#DADADA" fill-opacity="1.000000"/>
	<path id="упражнение" d="M248.55 169.5L251.42 173.9L249.78 176.5L251.24 176.5L255.61 169.5L254.15 169.5L252.14 172.71L250.07 169.5L248.55 169.5ZM262.25 169.5L255.98 169.5L255.98 176.5L257.32 176.5L257.32 170.69L260.92 170.69L260.92 176.5L262.25 176.5L262.25 169.5ZM264.89 176.5L264.89 174.02L267.5 174.02Q267.98 174.02 268.37 173.85Q268.38 173.84 268.38 173.84C268.65 173.72 268.88 173.55 269.07 173.35Q269.14 173.28 269.2 173.2Q269.4 172.94 269.53 172.63C269.64 172.35 269.69 172.07 269.69 171.77C269.69 171.47 269.64 171.18 269.53 170.9Q269.39 170.55 269.16 170.28Q269.12 170.22 269.07 170.17C268.88 169.97 268.65 169.8 268.38 169.68C268.12 169.56 267.82 169.5 267.5 169.5L263.55 169.5L263.55 176.5L264.89 176.5ZM270.87 175.17L274.2 175.17L274.76 176.5L277.45 176.5L280.03 173.72L280.03 176.5L281.36 176.5L281.36 173.72L283.92 176.5L285.57 176.5L282.35 172.99L285.57 169.5L283.92 169.5L281.36 172.26L281.36 169.5L280.03 169.5L280.03 172.26L277.45 169.5L275.8 169.5L279.02 172.99L276.03 176.25L273.22 169.5L271.84 169.5L268.93 176.5L270.3 176.5L270.87 175.17ZM287.51 169.5L286.17 169.5L286.17 176.5L287.51 176.5L287.51 173.6L291.11 173.6L291.11 176.5L292.44 176.5L292.44 169.5L291.11 169.5L291.11 172.4L287.51 172.4L287.51 169.5ZM299.22 169.5L293.74 169.5L293.74 176.5L299.22 176.5L299.22 175.29L295.07 175.29L295.07 173.57L299.01 173.57L299.01 172.43L295.07 172.43L295.07 170.69L299.22 170.69L299.22 169.5ZM301.54 169.5L300.21 169.5L300.21 176.5L301.54 176.5L301.54 173.6L305.15 173.6L305.15 176.5L306.48 176.5L306.48 169.5L305.15 169.5L305.15 172.4L301.54 172.4L301.54 169.5ZM309.12 169.5L307.78 169.5L307.78 176.5L309.12 176.5L312.91 171.52L312.91 176.5L314.25 176.5L314.25 169.5L312.91 169.5L309.12 174.47L309.12 169.5ZM267.77 172.77Q267.57 172.87 267.3 172.87L264.89 172.87L264.89 170.67L267.3 170.67Q267.57 170.67 267.77 170.76C267.9 170.82 268.01 170.91 268.11 171.01C268.21 171.11 268.28 171.23 268.33 171.37C268.38 171.5 268.41 171.63 268.41 171.77Q268.41 171.8 268.4 171.83Q268.39 172 268.33 172.16C268.28 172.29 268.21 172.41 268.11 172.52C268.01 172.62 267.9 172.71 267.77 172.77ZM272.54 171.2L273.73 174.04L271.32 174.04L272.54 171.2ZM282.59 180.5L277.11 180.5L277.11 187.5L282.59 187.5L282.59 186.29L278.45 186.29L278.45 184.57L282.39 184.57L282.39 183.43L278.45 183.43L278.45 181.69L282.59 181.69L282.59 180.5Z" fill="#292929" fill-opacity="1.000000" fill-rule="evenodd"/>
	<rect id="Прямоугольник 72" x="195.963379" y="222.000000" rx="19.000000" width="171.269104" height="38.000000" fill="#DADADA" fill-opacity="1.000000"/>
	<path id="упражнение" d="M248.55 229.5L251.42 233.9L249.78 236.5L251.24 236.5L255.61 229.5L254.15 229.5L252.14 232.71L250.07 229.5L248.55 229.5ZM262.25 229.5L255.98 229.5L255.98 236.5L257.32 236.5L257.32 230.69L260.92 230.69L260.92 236.5L262.25 236.5L262.25 229.5ZM264.89 236.5L264.89 234.02L267.5 234.02Q267.98 234.02 268.37 233.85Q268.38 233.84 268.38 233.84C268.65 233.72 268.88 233.55 269.07 233.35Q269.14 233.28 269.2 233.2Q269.4 232.94 269.53 232.63C269.64 232.35 269.69 232.07 269.69 231.77C269.69 231.47 269.64 231.18 269.53 230.9Q269.39 230.55 269.16 230.28Q269.12 230.22 269.07 230.17C268.88 229.97 268.65 229.8 268.38 229.68C268.12 229.56 267.82 229.5 267.5 229.5L263.55 229.5L263.55 236.5L264.89 236.5ZM270.87 235.17L274.2 235.17L274.76 236.5L277.45 236.5L280.03 233.72L280.03 236.5L281.36 236.5L281.36 233.72L283.92 236.5L285.57 236.5L282.35 232.99L285.57 229.5L283.92 229.5L281.36 232.26L281.36 229.5L280.03 229.5L280.03 232.26L277.45 229.5L275.8 229.5L279.02 232.99L276.03 236.25L273.22 229.5L271.84 229.5L268.93 236.5L270.3 236.5L270.87 235.17ZM287.51 229.5L286.17 229.5L286.17 236.5L287.51 236.5L287.51 233.6L291.11 233.6L291.11 236.5L292.44 236.5L292.44 229.5L291.11 229.5L291.11 232.4L287.51 232.4L287.51 229.5ZM299.22 229.5L293.74 229.5L293.74 236.5L299.22 236.5L299.22 235.29L295.07 235.29L295.07 233.57L299.01 233.57L299.01 232.43L295.07 232.43L295.07 230.69L299.22 230.69L299.22 229.5ZM301.54 229.5L300.21 229.5L300.21 236.5L301.54 236.5L301.54 233.6L305.15 233.6L305.15 236.5L306.48 236.5L306.48 229.5L305.15 229.5L305.15 232.4L301.54 232.4L301.54 229.5ZM309.12 229.5L307.78 229.5L307.78 236.5L309.12 236.5L312.91 231.52L312.91 236.5L314.25 236.5L314.25 229.5L312.91 229.5L309.12 234.47L309.12 229.5ZM267.77 232.77Q267.57 232.87 267.3 232.87L264.89 232.87L264.89 230.67L267.3 230.67Q267.57 230.67 267.77 230.76C267.9 230.82 268.01 230.91 268.11 231.01C268.21 231.11 268.28 231.23 268.33 231.37C268.38 231.5 268.41 231.63 268.41 231.77Q268.41 231.8 268.4 231.83Q268.39 232 268.33 232.16C268.28 232.29 268.21 232.41 268.11 232.52C268.01 232.62 267.9 232.71 267.77 232.77ZM272.54 231.2L273.73 234.04L271.32 234.04L272.54 231.2ZM282.59 240.5L277.11 240.5L277.11 247.5L282.59 247.5L282.59 246.29L278.45 246.29L278.45 244.57L282.39 244.57L282.39 243.43L278.45 243.43L278.45 241.69L282.59 241.69L282.59 240.5Z" fill="#292929" fill-opacity="1.000000" fill-rule="evenodd"/>
	<rect id="Прямоугольник 72" x="390.425293" y="162.000000" rx="19.000000" width="171.269104" height="38.000000" fill="#DADADA" fill-opacity="1.000000"/>
	<path id="упражнение" d="M443.01 169.5L445.88 173.9L444.25 176.5L445.71 176.5L450.08 169.5L448.62 169.5L446.6 172.71L444.53 169.5L443.01 169.5ZM456.72 169.5L450.45 169.5L450.45 176.5L451.78 176.5L451.78 170.69L455.38 170.69L455.38 176.5L456.72 176.5L456.72 169.5ZM459.35 176.5L459.35 174.02L461.97 174.02Q462.44 174.02 462.84 173.85Q462.84 173.84 462.85 173.84C463.11 173.72 463.34 173.55 463.54 173.35Q463.6 173.28 463.66 173.2Q463.86 172.94 463.99 172.63C464.1 172.35 464.16 172.07 464.16 171.77C464.16 171.47 464.1 171.18 463.99 170.9Q463.85 170.55 463.63 170.28Q463.58 170.22 463.54 170.17C463.34 169.97 463.11 169.8 462.85 169.68C462.58 169.56 462.29 169.5 461.97 169.5L458.02 169.5L458.02 176.5L459.35 176.5ZM465.33 175.17L468.66 175.17L469.22 176.5L471.92 176.5L474.49 173.72L474.49 176.5L475.82 176.5L475.82 173.72L478.39 176.5L480.04 176.5L476.82 172.99L480.04 169.5L478.39 169.5L475.82 172.26L475.82 169.5L474.49 169.5L474.49 172.26L471.92 169.5L470.27 169.5L473.49 172.99L470.49 176.25L467.69 169.5L466.3 169.5L463.39 176.5L464.77 176.5L465.33 175.17ZM481.97 169.5L480.64 169.5L480.64 176.5L481.97 176.5L481.97 173.6L485.57 173.6L485.57 176.5L486.91 176.5L486.91 169.5L485.57 169.5L485.57 172.4L481.97 172.4L481.97 169.5ZM493.68 169.5L488.21 169.5L488.21 176.5L493.68 176.5L493.68 175.29L489.54 175.29L489.54 173.57L493.48 173.57L493.48 172.43L489.54 172.43L489.54 170.69L493.68 170.69L493.68 169.5ZM496.01 169.5L494.68 169.5L494.68 176.5L496.01 176.5L496.01 173.6L499.61 173.6L499.61 176.5L500.95 176.5L500.95 169.5L499.61 169.5L499.61 172.4L496.01 172.4L496.01 169.5ZM503.58 169.5L502.25 169.5L502.25 176.5L503.58 176.5L507.38 171.52L507.38 176.5L508.72 176.5L508.72 169.5L507.38 169.5L503.58 174.47L503.58 169.5ZM462.23 172.77Q462.03 172.87 461.77 172.87L459.35 172.87L459.35 170.67L461.77 170.67Q462.03 170.67 462.23 170.76C462.36 170.82 462.48 170.91 462.57 171.01C462.67 171.11 462.74 171.23 462.79 171.37C462.84 171.5 462.87 171.63 462.87 171.77Q462.87 171.8 462.87 171.83Q462.85 172 462.79 172.16C462.74 172.29 462.67 172.41 462.57 172.52C462.48 172.62 462.36 172.71 462.23 172.77ZM467 171.2L468.2 174.04L465.79 174.04L467 171.2ZM477.05 180.5L471.58 180.5L471.58 187.5L477.05 187.5L477.05 186.29L472.91 186.29L472.91 184.57L476.85 184.57L476.85 183.43L472.91 183.43L472.91 181.69L477.05 181.69L477.05 180.5Z" fill="#292929" fill-opacity="1.000000" fill-rule="evenodd"/>
	<rect id="Прямоугольник 45" x="106.760742" y="111.000000" rx="10.500000" width="107.043190" height="21.000000" fill="#78E58F" fill-opacity="1.000000"/>
	<path id="кардио" d="M176.28 123.91C176.73 124.1 177.21 124.2 177.72 124.2C178.23 124.2 178.71 124.1 179.16 123.91C179.61 123.71 180 123.45 180.34 123.11C180.67 122.77 180.94 122.38 181.13 121.93C181.32 121.48 181.42 121 181.42 120.49C181.42 119.98 181.32 119.5 181.13 119.06C180.94 118.61 180.67 118.22 180.34 117.88C180 117.54 179.61 117.28 179.16 117.09C178.71 116.89 178.23 116.8 177.72 116.8C177.21 116.8 176.73 116.89 176.28 117.09C175.83 117.28 175.44 117.54 175.1 117.88C174.77 118.22 174.5 118.61 174.31 119.06C174.12 119.5 174.02 119.98 174.02 120.49C174.02 121 174.12 121.48 174.31 121.93C174.5 122.38 174.77 122.77 175.1 123.11C175.44 123.45 175.83 123.71 176.28 123.91ZM141.01 117L139.68 117L139.68 124L141.01 124L141.01 121.18L144.03 124L146.81 124L147.37 122.67L150.7 122.67L151.26 124L152.64 124L149.73 117L148.34 117L145.52 123.77L142.04 120.49L145.76 117L144.03 117L141.01 119.82L141.01 117ZM154.54 124L154.54 121.52L157.16 121.52Q157.63 121.52 158.03 121.35Q158.03 121.34 158.04 121.34C158.31 121.22 158.53 121.05 158.73 120.85C158.92 120.64 159.07 120.4 159.18 120.13C159.29 119.85 159.35 119.57 159.35 119.27C159.35 118.97 159.29 118.68 159.18 118.4Q159.05 118.05 158.82 117.78Q158.78 117.72 158.73 117.67C158.53 117.47 158.31 117.3 158.04 117.18C157.77 117.06 157.48 117 157.16 117L153.21 117L153.21 124L154.54 124ZM158.95 122.87L158.66 122.87L158.66 125.1L160 125.1L160 124L164.7 124L164.7 125.1L166.03 125.1L166.03 122.79L165.43 122.79L165.43 117L160.99 117L159.76 121.97C159.69 122.22 159.6 122.43 159.49 122.61C159.38 122.78 159.2 122.87 158.95 122.87ZM168.11 117L166.78 117L166.78 124L168.11 124L171.91 119.02L171.91 124L173.25 124L173.25 117L171.91 117L168.11 121.97L168.11 117ZM175.53 121.45C175.41 121.15 175.35 120.83 175.35 120.49C175.35 120.16 175.41 119.84 175.53 119.54C175.65 119.24 175.81 118.99 176.02 118.77C176.23 118.55 176.48 118.37 176.77 118.25C177.06 118.12 177.38 118.06 177.72 118.06Q178.19 118.06 178.6 118.22Q178.63 118.23 178.67 118.25C178.96 118.37 179.21 118.55 179.41 118.77C179.62 118.99 179.79 119.24 179.9 119.54Q179.92 119.58 179.93 119.61Q180.08 120.03 180.08 120.49C180.08 120.83 180.02 121.15 179.9 121.45C179.79 121.75 179.62 122.01 179.41 122.23C179.21 122.45 178.96 122.62 178.67 122.75Q178.63 122.76 178.6 122.77Q178.19 122.94 177.72 122.94C177.38 122.94 177.06 122.87 176.77 122.75C176.48 122.62 176.23 122.45 176.02 122.23C175.81 122.01 175.65 121.75 175.53 121.45ZM157.42 120.27Q157.22 120.37 156.96 120.37L154.54 120.37L154.54 118.17L156.96 118.17Q157.22 118.17 157.42 118.26C157.55 118.32 157.67 118.41 157.76 118.51C157.86 118.61 157.93 118.73 157.98 118.87C158.03 119 158.06 119.13 158.06 119.27C158.06 119.4 158.03 119.53 157.98 119.66C157.93 119.79 157.86 119.91 157.76 120.02C157.67 120.12 157.55 120.21 157.42 120.27ZM164.1 118.19L164.1 122.79L160.85 122.79C160.88 122.74 160.91 122.67 160.93 122.61C160.95 122.54 160.97 122.47 160.99 122.4L162.02 118.19L164.1 118.19ZM149.04 118.7L150.24 121.54L147.83 121.54L149.04 118.7Z" fill="#292929" fill-opacity="1.000000" fill-rule="evenodd"/>
	<rect id="Прямоугольник 45" x="222.724121" y="111.000000" rx="10.500000" width="107.043190" height="21.000000" fill="#78E58F" fill-opacity="1.000000"/>
	<path id="легко" d="M287.77 123.91C288.22 124.1 288.7 124.2 289.21 124.2C289.72 124.2 290.2 124.1 290.65 123.91C291.09 123.71 291.49 123.45 291.82 123.11C292.16 122.77 292.43 122.38 292.62 121.93C292.81 121.48 292.91 121 292.91 120.49C292.91 119.98 292.81 119.5 292.62 119.06C292.43 118.61 292.16 118.22 291.82 117.88C291.49 117.54 291.09 117.28 290.65 117.09C290.2 116.89 289.72 116.8 289.21 116.8C288.7 116.8 288.22 116.89 287.77 117.09C287.32 117.28 286.93 117.54 286.59 117.88C286.26 118.22 285.99 118.61 285.8 119.06C285.6 119.5 285.51 119.98 285.51 120.49C285.51 121 285.6 121.48 285.8 121.93C285.99 122.38 286.26 122.77 286.59 123.11C286.93 123.45 287.32 123.71 287.77 123.91ZM259.74 122.87L259.45 122.87L259.45 124L260.05 124C260.31 124 260.53 123.96 260.72 123.89C260.91 123.82 261.07 123.72 261.2 123.59C261.33 123.46 261.44 123.31 261.53 123.13C261.62 122.95 261.69 122.76 261.74 122.55L262.81 118.19L264.89 118.19L264.89 124L266.22 124L266.22 117L261.78 117L260.55 121.97C260.48 122.22 260.39 122.43 260.28 122.61C260.17 122.78 259.99 122.87 259.74 122.87ZM272.99 117L267.52 117L267.52 124L272.99 124L272.99 122.79L268.85 122.79L268.85 121.07L272.79 121.07L272.79 119.93L268.85 119.93L268.85 118.19L272.99 118.19L272.99 117ZM279.19 117L273.99 117L273.99 124L275.32 124L275.32 118.19L279.19 118.19L279.19 117ZM281.32 117L279.99 117L279.99 124L281.32 124L281.32 121.18L284.34 124L286.07 124L282.35 120.49L286.07 117L284.34 117L281.32 119.82L281.32 117ZM287.02 121.45C286.9 121.15 286.84 120.83 286.84 120.49C286.84 120.16 286.9 119.84 287.02 119.54C287.14 119.24 287.3 118.99 287.51 118.77C287.72 118.55 287.97 118.37 288.26 118.25C288.55 118.12 288.87 118.06 289.21 118.06Q289.68 118.06 290.08 118.22Q290.12 118.23 290.15 118.25C290.44 118.37 290.69 118.55 290.9 118.77C291.11 118.99 291.28 119.24 291.39 119.54Q291.41 119.58 291.42 119.61Q291.57 120.03 291.57 120.49C291.57 120.83 291.51 121.15 291.39 121.45C291.28 121.75 291.11 122.01 290.9 122.23C290.69 122.45 290.44 122.62 290.15 122.75Q290.12 122.76 290.08 122.77Q289.68 122.94 289.21 122.94C288.87 122.94 288.55 122.87 288.26 122.75C287.97 122.62 287.72 122.45 287.51 122.23C287.3 122.01 287.14 121.75 287.02 121.45Z" fill="#292929" fill-opacity="1.000000" fill-rule="evenodd"/>
	<rect id="Прямоугольник 45" x="338.687744" y="111.000000" rx="10.500000" width="107.043190" height="21.000000" fill="#FFF996" fill-opacity="1.000000"/>
	<path id="30-60 мин" d="M364.59 122.8C364.28 122.64 364.03 122.41 363.81 122.13L362.9 122.7C363.18 123.16 363.55 123.52 364 123.79C364.46 124.06 364.99 124.2 365.6 124.2C366.03 124.2 366.43 124.15 366.79 124.04C367.14 123.95 367.45 123.81 367.7 123.63C367.95 123.45 368.14 123.23 368.27 122.97C368.4 122.71 368.45 122.43 368.44 122.12C368.43 121.88 368.38 121.68 368.29 121.5C368.2 121.31 368.08 121.16 367.93 121.03C367.78 120.9 367.62 120.79 367.43 120.71Q367.14 120.58 366.83 120.49C367.04 120.44 367.24 120.37 367.43 120.29C367.62 120.2 367.78 120.09 367.93 119.96C368.08 119.83 368.2 119.68 368.29 119.5C368.38 119.32 368.43 119.11 368.44 118.88C368.45 118.56 368.4 118.28 368.27 118.02C368.14 117.76 367.95 117.55 367.7 117.37C367.45 117.19 367.14 117.05 366.79 116.95C366.43 116.85 366.03 116.8 365.6 116.8C364.99 116.8 364.46 116.93 364 117.2C363.55 117.47 363.18 117.84 362.9 118.29L363.81 118.87C364.03 118.58 364.28 118.36 364.59 118.19C364.9 118.03 365.23 117.95 365.59 117.95C366.11 117.95 366.5 118.05 366.76 118.25C367.02 118.45 367.15 118.69 367.15 118.97Q367.15 119.18 367.06 119.35Q367.04 119.37 367.03 119.39Q366.9 119.56 366.69 119.68Q366.48 119.79 366.21 119.84C366.04 119.87 365.86 119.89 365.67 119.91C365.54 119.92 365.38 119.93 365.21 119.93L364.77 119.93L364.77 121.07L365.21 121.07C365.38 121.07 365.54 121.07 365.67 121.09Q365.95 121.1 366.21 121.15C366.39 121.19 366.55 121.24 366.69 121.31C366.83 121.39 366.94 121.48 367.03 121.6C367.11 121.71 367.15 121.85 367.15 122.03C367.15 122.31 367.02 122.55 366.76 122.75C366.5 122.95 366.11 123.05 365.59 123.05C365.23 123.05 364.9 122.96 364.59 122.8ZM370.74 123.91C371.13 124.1 371.58 124.2 372.08 124.2C372.6 124.2 373.05 124.1 373.43 123.91C373.82 123.72 374.15 123.46 374.41 123.13Q374.81 122.63 375.01 121.95C375.14 121.5 375.21 121.02 375.21 120.49C375.21 119.98 375.14 119.49 375.01 119.04C374.88 118.59 374.68 118.2 374.41 117.87C374.15 117.53 373.82 117.27 373.43 117.08C373.05 116.89 372.6 116.8 372.08 116.8C371.58 116.8 371.13 116.89 370.74 117.08C370.35 117.27 370.02 117.53 369.75 117.87C369.49 118.2 369.29 118.59 369.15 119.04C369.02 119.49 368.95 119.98 368.95 120.49C368.95 121.02 369.02 121.5 369.15 121.95Q369.35 122.63 369.75 123.13C370.02 123.46 370.35 123.72 370.74 123.91ZM382.05 123.94C382.42 124.1 382.82 124.19 383.24 124.2Q383.9 124.2 384.44 124.01C384.79 123.88 385.1 123.71 385.35 123.5C385.6 123.28 385.8 123.03 385.94 122.75C386.08 122.47 386.15 122.17 386.15 121.87C386.15 121.55 386.09 121.25 385.96 120.98C385.83 120.7 385.65 120.47 385.42 120.27C385.19 120.07 384.91 119.92 384.58 119.81C384.25 119.7 383.89 119.64 383.49 119.64Q383.07 119.64 382.68 119.75Q382.53 119.79 382.39 119.85C382.04 119.99 381.74 120.2 381.48 120.5L381.48 120.37Q381.48 120.06 381.53 119.76Q381.55 119.63 381.58 119.5C381.64 119.22 381.74 118.96 381.89 118.74C382.04 118.52 382.23 118.34 382.46 118.2C382.69 118.06 382.98 117.99 383.32 117.99C383.67 117.99 383.98 118.07 384.26 118.23C384.53 118.38 384.78 118.59 384.99 118.87L385.88 118.27C385.63 117.83 385.28 117.47 384.84 117.2C384.39 116.93 383.89 116.8 383.34 116.8Q382.62 116.8 382.05 117.07C381.66 117.25 381.34 117.51 381.07 117.84C380.8 118.17 380.59 118.56 380.44 119.02C380.29 119.47 380.22 119.96 380.22 120.49C380.22 121.09 380.3 121.61 380.45 122.07C380.61 122.53 380.82 122.91 381.09 123.23C381.36 123.54 381.68 123.78 382.05 123.94ZM388.38 123.91C388.77 124.1 389.22 124.2 389.72 124.2C390.24 124.2 390.69 124.1 391.07 123.91C391.46 123.72 391.79 123.46 392.05 123.13Q392.45 122.63 392.65 121.95C392.78 121.5 392.85 121.02 392.85 120.49C392.85 119.98 392.78 119.49 392.65 119.04C392.52 118.59 392.32 118.2 392.05 117.87C391.79 117.53 391.46 117.27 391.07 117.08C390.69 116.89 390.24 116.8 389.72 116.8C389.22 116.8 388.77 116.89 388.38 117.08C387.99 117.27 387.66 117.53 387.39 117.87C387.13 118.2 386.93 118.59 386.79 119.04C386.66 119.49 386.59 119.98 386.59 120.49C386.59 121.02 386.66 121.5 386.79 121.95Q386.99 122.63 387.39 123.13C387.66 123.46 387.99 123.72 388.38 123.91ZM399.05 117L397.72 117L397.72 124L399.05 124L399.05 119.34L401.22 122.99L402.35 122.99L404.51 119.34L404.51 124L405.84 124L405.84 117L404.51 117L401.78 121.61L399.05 117ZM408.47 117L407.14 117L407.14 124L408.47 124L412.27 119.02L412.27 124L413.61 124L413.61 117L412.27 117L408.47 121.97L408.47 117ZM416.24 117L414.91 117L414.91 124L416.24 124L416.24 121.1L419.84 121.1L419.84 124L421.18 124L421.18 117L419.84 117L419.84 119.9L416.24 119.9L416.24 117ZM372.93 122.73C372.7 122.87 372.41 122.94 372.08 122.94C371.75 122.94 371.47 122.87 371.24 122.73C371.01 122.59 370.82 122.41 370.68 122.19C370.53 121.96 370.43 121.7 370.37 121.41C370.3 121.11 370.27 120.81 370.27 120.49Q370.27 120.03 370.37 119.59C370.43 119.29 370.53 119.03 370.68 118.81C370.82 118.58 371.01 118.4 371.24 118.26C371.47 118.12 371.75 118.06 372.08 118.06C372.41 118.06 372.7 118.12 372.93 118.26C373.16 118.4 373.34 118.58 373.49 118.81C373.63 119.03 373.73 119.29 373.8 119.59Q373.89 120.03 373.89 120.49C373.89 120.81 373.86 121.11 373.8 121.41C373.73 121.7 373.63 121.96 373.49 122.19C373.34 122.41 373.16 122.59 372.93 122.73ZM390.57 122.73C390.34 122.87 390.06 122.94 389.72 122.94C389.39 122.94 389.11 122.87 388.88 122.73C388.65 122.59 388.46 122.41 388.32 122.19C388.17 121.96 388.07 121.7 388.01 121.41C387.94 121.11 387.91 120.81 387.91 120.49Q387.91 120.03 388.01 119.59C388.07 119.29 388.17 119.03 388.32 118.81C388.46 118.58 388.65 118.4 388.88 118.26C389.11 118.12 389.39 118.06 389.72 118.06C390.06 118.06 390.34 118.12 390.57 118.26C390.8 118.4 390.98 118.58 391.13 118.81C391.27 119.03 391.37 119.29 391.44 119.59Q391.53 120.03 391.53 120.49C391.53 120.81 391.5 121.11 391.44 121.41C391.37 121.7 391.27 121.96 391.13 122.19C390.98 122.41 390.8 122.59 390.57 122.73ZM379.25 120.03L376.18 120.03L376.18 120.97L379.25 120.97L379.25 120.03ZM381.89 122.33C381.81 122.19 381.77 122.03 381.77 121.87C381.77 121.7 381.81 121.55 381.9 121.41C381.98 121.27 382.09 121.16 382.23 121.06Q382.44 120.9 382.72 120.82C382.91 120.76 383.11 120.74 383.31 120.74C383.53 120.74 383.74 120.76 383.93 120.82Q384.21 120.9 384.42 121.06C384.55 121.16 384.66 121.27 384.74 121.41C384.81 121.55 384.85 121.7 384.85 121.87C384.85 122.03 384.81 122.19 384.74 122.33C384.66 122.47 384.55 122.6 384.41 122.7C384.27 122.8 384.11 122.88 383.92 122.94C383.73 123 383.53 123.03 383.31 123.03C383.09 123.03 382.89 123 382.7 122.94C382.51 122.88 382.35 122.8 382.21 122.7C382.07 122.6 381.96 122.47 381.89 122.33Z" fill="#292929" fill-opacity="1.000000" fill-rule="evenodd"/>
	<rect id="Прямоугольник 45" x="454.651123" y="111.000000" rx="10.500000" width="107.043190" height="21.000000" fill="#FF9494" fill-opacity="1.000000"/>
	<path id="зал" d="M498.33 117.61C498.09 117.79 497.89 117.99 497.73 118.23L498.56 118.91Q498.63 118.84 498.7 118.77Q498.89 118.6 499.1 118.48C499.31 118.36 499.53 118.26 499.75 118.18C499.97 118.11 500.2 118.06 500.42 118.03Q500.75 117.97 501.04 117.97C501.29 117.97 501.52 118 501.72 118.04C501.92 118.08 502.1 118.15 502.24 118.23C502.39 118.31 502.51 118.4 502.59 118.51C502.67 118.61 502.72 118.73 502.73 118.86C502.74 119.06 502.7 119.22 502.61 119.35C502.52 119.48 502.4 119.59 502.24 119.67C502.09 119.75 501.91 119.81 501.71 119.85C501.51 119.89 501.3 119.91 501.08 119.93C500.86 119.95 500.65 119.95 500.43 119.95C500.21 119.95 500.01 119.95 499.82 119.95L499.82 121.05C500.01 121.05 500.21 121.04 500.43 121.04C500.65 121.04 500.86 121.04 501.08 121.06Q501.4 121.09 501.71 121.14C501.91 121.18 502.09 121.24 502.24 121.32C502.4 121.41 502.52 121.51 502.61 121.64C502.7 121.77 502.74 121.93 502.73 122.14C502.72 122.26 502.67 122.38 502.59 122.49C502.51 122.59 502.39 122.69 502.24 122.77C502.1 122.84 501.92 122.91 501.72 122.95C501.52 122.99 501.29 123.02 501.04 123.02Q500.75 123.02 500.42 122.97C500.2 122.93 499.97 122.88 499.75 122.81C499.53 122.73 499.31 122.64 499.1 122.52Q498.89 122.39 498.7 122.22Q498.63 122.15 498.56 122.08L497.73 122.77C497.89 122.99 498.09 123.19 498.33 123.38C498.58 123.56 498.85 123.71 499.13 123.83C499.41 123.95 499.71 124.04 500.01 124.1Q500.46 124.2 500.87 124.2C501.35 124.2 501.79 124.14 502.19 124.04C502.59 123.94 502.93 123.79 503.21 123.61C503.49 123.42 503.7 123.2 503.85 122.94Q503.95 122.76 504 122.58Q504.07 122.34 504.06 122.09C504.05 121.88 504.01 121.69 503.94 121.53Q503.87 121.35 503.76 121.2Q503.71 121.14 503.66 121.08C503.53 120.95 503.4 120.84 503.24 120.74C503.08 120.64 502.92 120.56 502.73 120.49Q503.01 120.38 503.24 120.25C503.4 120.15 503.53 120.04 503.66 119.91C503.78 119.78 503.87 119.63 503.94 119.47C504.01 119.3 504.05 119.11 504.06 118.91Q504.07 118.65 504 118.41Q503.95 118.23 503.85 118.06C503.7 117.8 503.49 117.57 503.21 117.39C502.93 117.2 502.59 117.05 502.19 116.95C501.79 116.85 501.35 116.8 500.87 116.8Q500.46 116.8 500.01 116.89C499.71 116.95 499.41 117.05 499.13 117.17C498.85 117.29 498.58 117.43 498.33 117.61ZM506.14 122.67L509.47 122.67L510.02 124L511.4 124L508.49 117L507.1 117L504.19 124L505.57 124L506.14 122.67ZM511.8 122.87L511.51 122.87L511.51 124L512.11 124C512.36 124 512.59 123.96 512.78 123.89C512.96 123.82 513.12 123.72 513.26 123.59C513.39 123.46 513.5 123.31 513.59 123.13C513.67 122.95 513.74 122.76 513.8 122.55L514.86 118.19L516.95 118.19L516.95 124L518.28 124L518.28 117L513.83 117L512.6 121.97C512.54 122.22 512.45 122.43 512.34 122.61C512.23 122.78 512.05 122.87 511.8 122.87ZM507.81 118.7L509 121.54L506.59 121.54L507.81 118.7Z" fill="#292929" fill-opacity="1.000000" fill-rule="evenodd"/>
	<path id="название тренировки" d="M186.41 55Q185.75 55.48 185.33 56.11L186.81 57.35Q186.94 57.21 187.08 57.09Q187.41 56.79 187.8 56.56Q188.32 56.26 188.88 56.06Q188.92 56.05 188.96 56.04Q189.57 55.84 190.17 55.75Q190.77 55.66 191.28 55.66Q191.96 55.66 192.51 55.78Q193.05 55.89 193.45 56.11Q193.85 56.33 194.07 56.62Q194.22 56.8 194.28 57.01Q194.31 57.13 194.32 57.24Q194.35 57.78 194.11 58.13L194.11 58.14Q193.87 58.48 193.45 58.71Q193.04 58.94 192.49 59.04Q191.94 59.13 191.35 59.18Q190.87 59.21 190.38 59.21Q190.28 59.21 190.19 59.21Q189.6 59.2 189.1 59.2L189.1 61.19Q189.6 61.19 190.19 61.18Q190.28 61.18 190.38 61.18Q190.87 61.18 191.35 61.21Q191.94 61.26 192.49 61.36Q193.04 61.45 193.45 61.68Q193.85 61.9 194.09 62.22Q194.1 62.24 194.11 62.26Q194.35 62.61 194.32 63.15Q194.31 63.26 194.28 63.36Q194.23 63.58 194.07 63.78Q193.85 64.06 193.45 64.28Q193.05 64.5 192.51 64.61Q191.96 64.73 191.28 64.73Q190.77 64.73 190.17 64.64Q189.57 64.55 188.96 64.35Q188.92 64.34 188.88 64.33Q188.32 64.13 187.8 63.83Q187.41 63.6 187.08 63.3Q186.94 63.18 186.81 63.04L185.33 64.28Q185.75 64.89 186.41 65.38Q186.69 65.58 186.98 65.75Q187.39 66 187.84 66.19Q188.18 66.33 188.52 66.44Q188.97 66.59 189.43 66.68Q190.25 66.86 190.99 66.86Q192.28 66.86 193.35 66.57Q194.43 66.3 195.18 65.8Q195.94 65.29 196.34 64.59Q196.52 64.28 196.61 63.95Q196.73 63.52 196.71 63.06Q196.69 62.5 196.5 62.05Q196.37 61.74 196.18 61.47Q196.09 61.36 195.99 61.25Q195.97 61.23 195.95 61.21Q195.64 60.88 195.24 60.64Q194.82 60.37 194.33 60.19Q194.82 60 195.24 59.75Q195.58 59.55 195.85 59.29Q195.92 59.22 195.99 59.14Q196.11 59.01 196.21 58.87Q196.39 58.63 196.5 58.34Q196.69 57.89 196.71 57.33Q196.73 56.87 196.61 56.44Q196.52 56.11 196.34 55.8Q195.94 55.1 195.18 54.6Q194.43 54.09 193.35 53.82Q192.28 53.54 190.99 53.54Q190.25 53.54 189.43 53.71Q189.02 53.79 188.61 53.92Q188.22 54.04 187.84 54.2Q187.33 54.42 186.86 54.71Q186.63 54.85 186.41 55ZM162.42 53.9L160.03 53.9L160.03 66.5L162.42 66.5L162.42 61.27L168.9 61.27L168.9 66.5L171.31 66.5L171.31 53.9L168.9 53.9L168.9 59.12L162.42 59.12L162.42 53.9ZM175.83 64.12L181.83 64.12L182.83 66.5L185.31 66.5L180.08 53.9L177.58 53.9L172.34 66.5L174.82 66.5L175.83 64.12ZM205.69 53.9L198.28 53.9L198.28 66.5L205.69 66.5Q206.28 66.5 206.82 66.32Q206.95 66.27 207.08 66.22Q207.65 65.97 208.08 65.58Q208.14 65.52 208.2 65.46Q208.32 65.35 208.42 65.22Q208.75 64.83 208.96 64.34Q209.03 64.17 209.08 64Q209.24 63.5 209.24 62.95Q209.24 62.16 208.93 61.53Q208.87 61.42 208.81 61.32Q208.58 60.93 208.27 60.63Q208.01 60.38 207.69 60.19Q208.01 60 208.27 59.75Q208.59 59.46 208.81 59.07Q208.88 58.96 208.93 58.85Q209.24 58.22 209.24 57.44Q209.24 56.87 209.07 56.35Q209.02 56.2 208.96 56.06Q208.73 55.53 208.37 55.12Q208.29 55.02 208.2 54.93Q208.11 54.84 208.02 54.76Q207.61 54.4 207.08 54.18Q206.93 54.11 206.79 54.07Q206.27 53.9 205.69 53.9ZM213.04 64.12L219.03 64.12L220.04 66.5L222.52 66.5L217.28 53.9L214.78 53.9L209.54 66.5L212.03 66.5L213.04 64.12ZM225.94 53.9L223.55 53.9L223.55 66.5L225.94 66.5L225.94 61.27L232.42 61.27L232.42 66.5L234.83 66.5L234.83 53.9L232.42 53.9L232.42 59.12L225.94 59.12L225.94 53.9ZM239.57 53.9L237.17 53.9L237.17 66.5L239.57 66.5L246.41 57.55L246.41 66.5L248.82 66.5L248.82 53.9L246.41 53.9L239.57 62.84L239.57 53.9ZM261.01 53.9L251.16 53.9L251.16 66.5L261.01 66.5L261.01 64.33L253.55 64.33L253.55 61.22L260.65 61.22L260.65 59.17L253.55 59.17L253.55 56.05L261.01 56.05L261.01 53.9ZM200.67 59.17L200.67 56.05L205.33 56.05Q205.73 56.05 206.06 56.21Q206.29 56.32 206.49 56.51Q206.74 56.74 206.86 57.02Q206.97 57.29 206.97 57.6Q206.97 57.79 206.93 57.96Q206.9 58.09 206.84 58.22Q206.78 58.35 206.7 58.47Q206.61 58.61 206.49 58.72Q206.43 58.78 206.37 58.83Q206.19 58.97 205.97 59.06Q205.68 59.17 205.33 59.17L200.67 59.17ZM178.84 56.97L180.99 62.08L176.66 62.08L178.84 56.97ZM216.04 56.97L218.2 62.08L213.86 62.08L216.04 56.97ZM206.07 64.18Q205.74 64.33 205.33 64.33L200.67 64.33L200.67 61.22L205.33 61.22Q205.68 61.22 205.97 61.34Q206.17 61.42 206.34 61.54Q206.42 61.6 206.49 61.67Q206.58 61.75 206.65 61.84Q206.76 61.99 206.84 62.18Q206.88 62.25 206.91 62.34Q206.97 62.55 206.97 62.79Q206.97 63.1 206.86 63.37Q206.74 63.65 206.49 63.88Q206.3 64.07 206.07 64.18ZM231.01 89.59Q231.91 89.86 232.88 89.86Q234.01 89.86 235.02 89.51Q235.25 89.43 235.47 89.33Q236.3 88.97 236.99 88.44Q237.3 88.19 237.59 87.9Q237.89 87.61 238.14 87.28Q238.67 86.6 239.02 85.78Q239.17 85.43 239.28 85.06Q239.54 84.17 239.54 83.19Q239.54 82.06 239.19 81.06Q239.11 80.83 239.02 80.6Q238.68 79.82 238.17 79.15Q237.9 78.8 237.59 78.49Q237.27 78.17 236.92 77.9Q236.26 77.4 235.47 77.06Q235.25 76.96 235.02 76.88Q234.01 76.54 232.88 76.54Q231.91 76.54 231.01 76.8Q230.65 76.91 230.29 77.06Q229.48 77.41 228.8 77.93Q228.47 78.19 228.17 78.49Q227.89 78.77 227.64 79.09Q227.1 79.78 226.74 80.6Q226.65 80.83 226.57 81.06Q226.22 82.06 226.22 83.19Q226.22 84.17 226.48 85.06Q226.59 85.43 226.74 85.78Q227.11 86.64 227.67 87.34Q227.9 87.64 228.17 87.9Q228.44 88.17 228.74 88.41Q229.44 88.96 230.29 89.33Q230.65 89.48 231.01 89.59ZM149.68 79.05L154.24 79.05L154.24 89.5L156.65 89.5L156.65 79.05L161.21 79.05L161.21 76.9L149.68 76.9L149.68 79.05ZM165.04 89.5L165.04 85.05L169.75 85.05Q170.61 85.05 171.32 84.73Q171.33 84.72 171.34 84.72Q171.88 84.47 172.31 84.08Q172.45 83.96 172.58 83.83Q172.7 83.7 172.8 83.57Q173.17 83.1 173.4 82.53Q173.52 82.24 173.59 81.93Q173.7 81.47 173.7 80.98Q173.7 80.52 173.6 80.07Q173.53 79.74 173.4 79.42Q173.15 78.79 172.74 78.3Q172.66 78.21 172.58 78.12Q172.44 77.97 172.29 77.84Q171.87 77.47 171.34 77.23Q171.31 77.22 171.29 77.21Q170.59 76.9 169.75 76.9L162.64 76.9L162.64 89.5L165.04 89.5ZM184.95 76.9L175.1 76.9L175.1 89.5L184.95 89.5L184.95 87.33L177.5 87.33L177.5 84.22L184.59 84.22L184.59 82.17L177.5 82.17L177.5 79.05L184.95 79.05L184.95 76.9ZM189.14 76.9L186.75 76.9L186.75 89.5L189.14 89.5L189.14 84.27L195.62 84.27L195.62 89.5L198.03 89.5L198.03 76.9L195.62 76.9L195.62 82.12L189.14 82.12L189.14 76.9ZM202.77 76.9L200.37 76.9L200.37 89.5L202.77 89.5L209.61 80.55L209.61 89.5L212.02 89.5L212.02 76.9L209.61 76.9L202.77 85.84L202.77 76.9ZM216.75 89.5L216.75 85.05L221.47 85.05Q222.32 85.05 223.03 84.73Q223.04 84.72 223.05 84.72Q223.6 84.47 224.03 84.08Q224.17 83.96 224.29 83.83Q224.41 83.7 224.52 83.57Q224.88 83.1 225.11 82.53Q225.23 82.24 225.3 81.93Q225.41 81.47 225.41 80.98Q225.41 80.52 225.31 80.07Q225.24 79.74 225.11 79.42Q224.86 78.79 224.46 78.3Q224.38 78.21 224.29 78.12Q224.16 77.97 224 77.84Q223.58 77.47 223.05 77.23Q223.03 77.22 223 77.21Q222.31 76.9 221.47 76.9L214.36 76.9L214.36 89.5L216.75 89.5ZM248.33 76.9L240.91 76.9L240.91 89.5L248.33 89.5Q248.92 89.5 249.45 89.32Q249.58 89.27 249.71 89.22Q250.28 88.97 250.72 88.58Q250.78 88.52 250.84 88.46Q250.95 88.35 251.06 88.22Q251.38 87.83 251.59 87.34Q251.66 87.17 251.72 87Q251.87 86.5 251.87 85.95Q251.87 85.16 251.56 84.53Q251.51 84.42 251.45 84.32Q251.21 83.93 250.9 83.63Q250.64 83.38 250.32 83.19Q250.64 83 250.91 82.75Q251.22 82.46 251.45 82.07Q251.51 81.96 251.57 81.85Q251.87 81.22 251.87 80.44Q251.87 79.87 251.7 79.35Q251.65 79.2 251.59 79.06Q251.37 78.53 251.01 78.12Q250.92 78.02 250.84 77.93Q250.75 77.84 250.65 77.76Q250.24 77.4 249.71 77.18Q249.57 77.11 249.42 77.07Q248.9 76.9 248.33 76.9ZM255.83 76.9L253.44 76.9L253.44 89.5L255.83 89.5L255.83 84.42L261.27 89.5L264.38 89.5L257.69 83.19L264.38 76.9L261.27 76.9L255.83 81.97L255.83 76.9ZM267.85 76.9L265.46 76.9L265.46 89.5L267.85 89.5L274.69 80.55L274.69 89.5L277.1 89.5L277.1 76.9L274.69 76.9L267.85 85.84L267.85 76.9ZM228.88 84.76Q228.62 84.02 228.62 83.19Q228.62 82.37 228.88 81.64Q228.9 81.56 228.94 81.48Q229.22 80.77 229.7 80.22Q229.76 80.15 229.83 80.08Q229.97 79.94 230.12 79.81Q230.59 79.41 231.18 79.15Q231.26 79.11 231.34 79.08Q232.06 78.8 232.88 78.8Q233.73 78.8 234.46 79.09Q234.52 79.12 234.58 79.15Q235.18 79.41 235.64 79.81Q235.79 79.94 235.93 80.08Q236.03 80.19 236.13 80.3Q236.55 80.82 236.81 81.48Q236.84 81.54 236.86 81.6Q237.13 82.35 237.13 83.19Q237.13 84.04 236.86 84.8Q236.83 84.86 236.81 84.92Q236.56 85.55 236.15 86.06Q236.05 86.19 235.93 86.31Q235.79 86.45 235.64 86.58Q235.18 86.99 234.58 87.25Q234.52 87.27 234.46 87.3Q233.73 87.59 232.88 87.59Q232.06 87.59 231.34 87.31Q231.26 87.28 231.18 87.25Q230.59 86.99 230.12 86.58Q229.97 86.45 229.83 86.31Q229.75 86.22 229.67 86.13Q229.22 85.6 228.94 84.92Q228.91 84.84 228.88 84.76ZM170.22 82.79Q169.86 82.96 169.39 82.96L165.04 82.96L165.04 79L169.39 79Q169.86 79 170.22 79.17Q170.51 79.31 170.73 79.51Q170.79 79.57 170.84 79.62Q170.95 79.73 171.03 79.86Q171.16 80.04 171.24 80.26Q171.38 80.62 171.38 80.98Q171.38 81.04 171.37 81.11Q171.35 81.4 171.24 81.69Q171.22 81.75 171.19 81.81Q171.06 82.09 170.84 82.33Q170.77 82.41 170.69 82.48Q170.49 82.66 170.22 82.79ZM221.94 82.79Q221.58 82.96 221.11 82.96L216.75 82.96L216.75 79L221.11 79Q221.58 79 221.94 79.17Q222.22 79.31 222.44 79.51Q222.5 79.57 222.56 79.62Q222.66 79.73 222.75 79.86Q222.87 80.04 222.95 80.26Q223.09 80.62 223.09 80.98Q223.09 81.04 223.09 81.11Q223.07 81.4 222.95 81.69Q222.93 81.75 222.91 81.81Q222.77 82.09 222.56 82.33Q222.49 82.41 222.41 82.48Q222.2 82.66 221.94 82.79ZM243.3 82.17L243.3 79.05L247.97 79.05Q248.36 79.05 248.69 79.21Q248.93 79.32 249.13 79.51Q249.37 79.74 249.49 80.02Q249.6 80.29 249.6 80.6Q249.6 80.79 249.56 80.96Q249.53 81.09 249.48 81.22Q249.42 81.35 249.33 81.47Q249.24 81.61 249.13 81.72Q249.06 81.78 249 81.83Q248.82 81.97 248.6 82.06Q248.31 82.17 247.97 82.17L243.3 82.17ZM248.7 87.18Q248.37 87.33 247.97 87.33L243.3 87.33L243.3 84.22L247.97 84.22Q248.31 84.22 248.6 84.34Q248.81 84.42 248.98 84.54Q249.05 84.6 249.13 84.67Q249.21 84.75 249.28 84.84Q249.4 84.99 249.48 85.18Q249.51 85.25 249.54 85.34Q249.6 85.55 249.6 85.79Q249.6 86.1 249.49 86.37Q249.37 86.65 249.13 86.88Q248.93 87.07 248.7 87.18Z" fill="#292929" fill-opacity="1.000000" fill-rule="evenodd"/>
	<rect id="Прямоугольник 97" x="303.006592" y="355.000000" rx="20.000000" width="303.289032" height="59.000000" fill="#78E58F" fill-opacity="1.000000"/>
	<path id="сгенерировать тренировку" d="M376.35 379.59Q377.25 379.86 378.22 379.86Q379.43 379.86 380.49 379.46Q380.85 379.33 381.2 379.15Q382.04 378.72 382.71 378.11Q383.13 377.72 383.48 377.26L381.86 375.93Q381.67 376.14 381.47 376.32Q380.93 376.81 380.25 377.15Q380.08 377.23 379.9 377.3Q379.11 377.61 378.21 377.61Q377.45 377.61 376.79 377.37Q376.65 377.32 376.53 377.26Q376.02 377.04 375.59 376.7Q375.37 376.53 375.18 376.33Q375.06 376.21 374.95 376.07Q374.54 375.57 374.28 374.93Q373.96 374.13 373.96 373.19Q373.96 372.26 374.28 371.46Q374.54 370.82 374.95 370.32Q375.06 370.19 375.18 370.06Q375.37 369.86 375.59 369.69Q376.02 369.35 376.53 369.13Q376.65 369.07 376.79 369.03Q377.45 368.79 378.21 368.79Q379.1 368.79 379.88 369.08Q380.07 369.16 380.25 369.25Q380.92 369.57 381.45 370.05Q381.66 370.24 381.86 370.46L383.48 369.13Q383.11 368.64 382.66 368.24Q382.01 367.65 381.2 367.24Q380.85 367.06 380.49 366.93Q379.43 366.54 378.22 366.54Q377.25 366.54 376.35 366.8Q375.99 366.91 375.64 367.06Q374.82 367.41 374.14 367.93Q373.81 368.19 373.51 368.49Q373.23 368.77 372.98 369.09Q372.44 369.78 372.08 370.61Q371.99 370.83 371.91 371.06Q371.56 372.07 371.56 373.19Q371.56 374.17 371.82 375.06Q371.93 375.43 372.08 375.78Q372.45 376.64 373.01 377.34Q373.25 377.64 373.51 377.9Q373.78 378.17 374.08 378.41Q374.78 378.96 375.64 379.33Q375.99 379.48 376.35 379.59ZM475.73 379.59Q476.63 379.86 477.6 379.86Q478.73 379.86 479.74 379.51Q479.97 379.43 480.19 379.33Q481.02 378.97 481.7 378.44Q482.02 378.19 482.31 377.9Q482.6 377.61 482.86 377.28Q483.39 376.6 483.74 375.78Q483.89 375.43 484 375.06Q484.26 374.17 484.26 373.19Q484.26 372.07 483.91 371.06Q483.83 370.83 483.74 370.61Q483.4 369.82 482.89 369.15Q482.62 368.8 482.31 368.49Q481.99 368.17 481.64 367.9Q480.98 367.4 480.19 367.06Q479.97 366.96 479.74 366.88Q478.73 366.54 477.6 366.54Q476.63 366.54 475.73 366.8Q475.37 366.91 475.01 367.06Q474.2 367.41 473.52 367.93Q473.19 368.19 472.89 368.49Q472.6 368.77 472.36 369.09Q471.82 369.78 471.46 370.61Q471.37 370.83 471.29 371.06Q470.94 372.07 470.94 373.19Q470.94 374.17 471.2 375.06Q471.31 375.43 471.46 375.78Q471.83 376.64 472.39 377.34Q472.62 377.64 472.89 377.9Q473.16 378.17 473.45 378.41Q474.16 378.96 475.01 379.33Q475.37 379.48 475.73 379.59ZM394.28 366.9L384.92 366.9L384.92 379.5L387.31 379.5L387.31 369.05L394.28 369.05L394.28 366.9ZM405.56 366.9L395.72 366.9L395.72 379.5L405.56 379.5L405.56 377.33L398.11 377.33L398.11 374.22L405.2 374.22L405.2 372.17L398.11 372.17L398.11 369.05L405.56 369.05L405.56 366.9ZM409.76 366.9L407.36 366.9L407.36 379.5L409.76 379.5L409.76 374.27L416.24 374.27L416.24 379.5L418.65 379.5L418.65 366.9L416.24 366.9L416.24 372.12L409.76 372.12L409.76 366.9ZM430.84 366.9L420.99 366.9L420.99 379.5L430.84 379.5L430.84 377.33L423.38 377.33L423.38 374.22L430.48 374.22L430.48 372.17L423.38 372.17L423.38 369.05L430.84 369.05L430.84 366.9ZM435.03 379.5L435.03 375.05L439.75 375.05Q440.6 375.05 441.31 374.73Q441.32 374.72 441.33 374.72Q441.87 374.47 442.31 374.08Q442.44 373.96 442.57 373.83Q442.69 373.7 442.79 373.57Q443.16 373.1 443.39 372.53Q443.51 372.24 443.58 371.93Q443.69 371.47 443.69 370.98Q443.69 370.52 443.59 370.07Q443.52 369.74 443.39 369.42Q443.14 368.8 442.73 368.3Q442.65 368.21 442.57 368.12Q442.43 367.97 442.28 367.84Q441.86 367.47 441.33 367.23Q441.3 367.22 441.28 367.21Q440.58 366.9 439.75 366.9L432.63 366.9L432.63 379.5L435.03 379.5ZM447.49 366.9L445.09 366.9L445.09 379.5L447.49 379.5L454.32 370.55L454.32 379.5L456.74 379.5L456.74 366.9L454.32 366.9L447.49 375.84L447.49 366.9ZM461.47 379.5L461.47 375.05L466.19 375.05Q467.04 375.05 467.75 374.73Q467.76 374.72 467.77 374.72Q468.32 374.47 468.75 374.08Q468.89 373.96 469.01 373.83Q469.13 373.7 469.24 373.57Q469.6 373.1 469.83 372.53Q469.95 372.24 470.02 371.93Q470.13 371.47 470.13 370.98Q470.13 370.52 470.03 370.07Q469.96 369.74 469.83 369.42Q469.58 368.8 469.17 368.3Q469.1 368.21 469.01 368.12Q468.87 367.97 468.72 367.84Q468.3 367.47 467.77 367.23Q467.75 367.22 467.72 367.21Q467.02 366.9 466.19 366.9L459.08 366.9L459.08 379.5L461.47 379.5ZM493.04 366.9L485.63 366.9L485.63 379.5L493.04 379.5Q493.64 379.5 494.17 379.32Q494.3 379.27 494.43 379.22Q495 378.97 495.44 378.58Q495.5 378.52 495.55 378.46Q495.67 378.35 495.78 378.22Q496.1 377.83 496.31 377.34Q496.38 377.17 496.43 377Q496.59 376.5 496.59 375.95Q496.59 375.16 496.28 374.53Q496.23 374.42 496.16 374.32Q495.93 373.93 495.62 373.63Q495.36 373.38 495.04 373.19Q495.36 373 495.63 372.75Q495.94 372.46 496.16 372.07Q496.23 371.96 496.29 371.85Q496.59 371.22 496.59 370.44Q496.59 369.87 496.42 369.35Q496.37 369.2 496.31 369.06Q496.08 368.53 495.73 368.12Q495.64 368.02 495.55 367.93Q495.47 367.84 495.37 367.76Q494.96 367.4 494.43 367.18Q494.29 367.12 494.14 367.07Q493.62 366.9 493.04 366.9ZM500.39 377.12L506.38 377.12L507.39 379.5L509.87 379.5L504.63 366.9L502.13 366.9L496.9 379.5L499.38 379.5L500.39 377.12ZM508.2 369.05L512.76 369.05L512.76 379.5L515.17 379.5L515.17 369.05L519.72 369.05L519.72 366.9L508.2 366.9L508.2 369.05ZM523.55 366.9L521.16 366.9L521.16 379.5L528.27 379.5Q529.11 379.5 529.8 379.18Q529.83 379.17 529.85 379.16Q530.4 378.91 530.83 378.53Q530.97 378.4 531.09 378.27Q531.19 378.16 531.29 378.05Q531.67 377.57 531.91 376.97Q532.04 376.65 532.11 376.32Q532.21 375.87 532.21 375.41Q532.21 374.92 532.1 374.46Q532.03 374.15 531.91 373.86Q531.68 373.29 531.32 372.82Q531.21 372.69 531.09 372.57Q530.96 372.42 530.8 372.29Q530.38 371.92 529.85 371.68Q529.83 371.67 529.8 371.66Q529.11 371.34 528.27 371.34L523.55 371.34L523.55 366.9ZM473.6 374.76Q473.33 374.02 473.33 373.19Q473.33 372.37 473.59 371.64Q473.62 371.56 473.66 371.48Q473.94 370.77 474.42 370.22Q474.48 370.15 474.55 370.08Q474.69 369.94 474.84 369.81Q475.3 369.41 475.9 369.15Q475.98 369.11 476.06 369.08Q476.78 368.8 477.6 368.8Q478.45 368.8 479.18 369.09Q479.24 369.12 479.3 369.15Q479.89 369.41 480.36 369.81Q480.51 369.94 480.65 370.08Q480.75 370.19 480.84 370.3Q481.27 370.82 481.53 371.48Q481.55 371.54 481.58 371.6Q481.85 372.35 481.85 373.19Q481.85 374.05 481.57 374.8Q481.55 374.86 481.53 374.92Q481.28 375.55 480.87 376.06Q480.77 376.19 480.65 376.31Q480.51 376.45 480.36 376.58Q479.89 376.99 479.3 377.25Q479.24 377.27 479.18 377.3Q478.45 377.59 477.6 377.59Q476.78 377.59 476.06 377.31Q475.98 377.28 475.9 377.25Q475.3 376.99 474.84 376.58Q474.69 376.45 474.55 376.31Q474.47 376.22 474.39 376.14Q473.93 375.6 473.66 374.92Q473.62 374.84 473.6 374.76ZM440.22 372.79Q439.85 372.96 439.38 372.96L435.03 372.96L435.03 369L439.38 369Q439.85 369 440.22 369.17Q440.5 369.31 440.72 369.51Q440.78 369.57 440.83 369.63Q440.94 369.74 441.02 369.86Q441.15 370.05 441.23 370.26Q441.37 370.62 441.37 370.98Q441.37 371.04 441.36 371.11Q441.34 371.4 441.23 371.7Q441.21 371.75 441.18 371.81Q441.05 372.09 440.83 372.33Q440.76 372.41 440.68 372.48Q440.48 372.67 440.22 372.79ZM466.66 372.79Q466.3 372.96 465.83 372.96L461.47 372.96L461.47 369L465.83 369Q466.3 369 466.66 369.17Q466.94 369.31 467.16 369.51Q467.22 369.57 467.28 369.63Q467.38 369.74 467.46 369.86Q467.59 370.05 467.67 370.26Q467.81 370.62 467.81 370.98Q467.81 371.04 467.8 371.11Q467.79 371.4 467.67 371.7Q467.65 371.75 467.62 371.81Q467.49 372.09 467.28 372.33Q467.21 372.41 467.13 372.48Q466.92 372.67 466.66 372.79ZM488.02 372.17L488.02 369.05L492.68 369.05Q493.08 369.05 493.41 369.21Q493.65 369.32 493.84 369.51Q494.09 369.74 494.21 370.02Q494.32 370.29 494.32 370.61Q494.32 370.79 494.28 370.96Q494.25 371.09 494.2 371.22Q494.14 371.35 494.05 371.47Q493.96 371.61 493.84 371.72Q493.78 371.78 493.72 371.83Q493.54 371.97 493.32 372.06Q493.03 372.17 492.68 372.17L488.02 372.17ZM503.39 369.97L505.55 375.08L501.22 375.08L503.39 369.97ZM528.74 377.22Q528.38 377.39 527.91 377.39L523.55 377.39L523.55 373.43L527.91 373.43Q528.38 373.43 528.74 373.6Q528.96 373.71 529.15 373.86Q529.26 373.95 529.36 374.06Q529.55 374.27 529.68 374.52Q529.72 374.61 529.75 374.7Q529.86 374.96 529.88 375.23Q529.89 375.32 529.89 375.41Q529.89 375.77 529.75 376.13Q529.68 376.33 529.57 376.5Q529.48 376.64 529.36 376.77Q529.32 376.81 529.28 376.85Q529.05 377.07 528.74 377.22ZM493.42 377.18Q493.09 377.33 492.68 377.33L488.02 377.33L488.02 374.22L492.68 374.22Q493.03 374.22 493.32 374.34Q493.53 374.42 493.69 374.54Q493.77 374.6 493.84 374.67Q493.93 374.75 494 374.84Q494.12 374.99 494.2 375.18Q494.23 375.25 494.26 375.34Q494.32 375.55 494.32 375.79Q494.32 376.1 494.21 376.37Q494.09 376.65 493.84 376.89Q493.65 377.07 493.42 377.18ZM473.01 402.59Q473.91 402.86 474.88 402.86Q476.01 402.86 477.02 402.51Q477.25 402.43 477.47 402.33Q478.3 401.97 478.99 401.44Q479.3 401.19 479.59 400.9Q479.89 400.61 480.14 400.28Q480.67 399.6 481.02 398.78Q481.17 398.43 481.28 398.06Q481.54 397.17 481.54 396.19Q481.54 395.07 481.19 394.06Q481.11 393.83 481.02 393.61Q480.68 392.82 480.17 392.15Q479.91 391.8 479.59 391.49Q479.27 391.17 478.92 390.9Q478.26 390.4 477.47 390.06Q477.25 389.96 477.02 389.88Q476.01 389.54 474.88 389.54Q473.91 389.54 473.01 389.8Q472.65 389.91 472.3 390.06Q471.48 390.41 470.8 390.93Q470.47 391.19 470.17 391.49Q469.89 391.77 469.64 392.09Q469.1 392.78 468.74 393.61Q468.65 393.83 468.57 394.06Q468.22 395.07 468.22 396.19Q468.22 397.17 468.48 398.06Q468.59 398.43 468.74 398.78Q469.11 399.64 469.67 400.34Q469.91 400.64 470.17 400.9Q470.44 401.17 470.74 401.41Q471.44 401.96 472.3 402.33Q472.65 402.48 473.01 402.59ZM391.68 392.05L396.24 392.05L396.24 402.5L398.65 402.5L398.65 392.05L403.21 392.05L403.21 389.9L391.68 389.9L391.68 392.05ZM407.04 402.5L407.04 398.05L411.76 398.05Q412.61 398.05 413.32 397.73Q413.33 397.72 413.34 397.72Q413.88 397.47 414.32 397.08Q414.45 396.96 414.58 396.83Q414.7 396.7 414.8 396.57Q415.17 396.1 415.4 395.53Q415.52 395.24 415.59 394.93Q415.7 394.47 415.7 393.98Q415.7 393.52 415.6 393.07Q415.53 392.74 415.4 392.42Q415.15 391.8 414.74 391.3Q414.66 391.21 414.58 391.12Q414.44 390.97 414.29 390.84Q413.87 390.47 413.34 390.23Q413.31 390.22 413.29 390.21Q412.59 389.9 411.76 389.9L404.64 389.9L404.64 402.5L407.04 402.5ZM426.95 389.9L417.1 389.9L417.1 402.5L426.95 402.5L426.95 400.33L419.5 400.33L419.5 397.22L426.59 397.22L426.59 395.17L419.5 395.17L419.5 392.05L426.95 392.05L426.95 389.9ZM431.14 389.9L428.75 389.9L428.75 402.5L431.14 402.5L431.14 397.27L437.62 397.27L437.62 402.5L440.03 402.5L440.03 389.9L437.62 389.9L437.62 395.12L431.14 395.12L431.14 389.9ZM444.77 389.9L442.37 389.9L442.37 402.5L444.77 402.5L451.61 393.55L451.61 402.5L454.02 402.5L454.02 389.9L451.61 389.9L444.77 398.84L444.77 389.9ZM458.75 402.5L458.75 398.05L463.47 398.05Q464.32 398.05 465.03 397.73Q465.04 397.72 465.05 397.72Q465.6 397.47 466.03 397.08Q466.17 396.96 466.29 396.83Q466.41 396.7 466.52 396.57Q466.88 396.1 467.11 395.53Q467.23 395.24 467.3 394.93Q467.41 394.47 467.41 393.98Q467.41 393.52 467.31 393.07Q467.24 392.74 467.11 392.42Q466.86 391.8 466.46 391.3Q466.38 391.21 466.29 391.12Q466.16 390.97 466 390.84Q465.58 390.47 465.05 390.23Q465.03 390.22 465 390.21Q464.31 389.9 463.47 389.9L456.36 389.9L456.36 402.5L458.75 402.5ZM490.33 389.9L482.91 389.9L482.91 402.5L490.33 402.5Q490.92 402.5 491.45 402.32Q491.58 402.27 491.71 402.22Q492.28 401.97 492.72 401.58Q492.78 401.52 492.84 401.46Q492.95 401.35 493.06 401.22Q493.38 400.83 493.59 400.34Q493.66 400.17 493.72 400Q493.87 399.5 493.87 398.95Q493.87 398.16 493.56 397.53Q493.51 397.42 493.45 397.32Q493.22 396.93 492.9 396.63Q492.64 396.38 492.32 396.19Q492.64 396 492.91 395.75Q493.22 395.46 493.45 395.07Q493.51 394.96 493.57 394.85Q493.87 394.22 493.87 393.44Q493.87 392.87 493.7 392.35Q493.65 392.2 493.59 392.06Q493.37 391.53 493.01 391.12Q492.93 391.02 492.84 390.93Q492.75 390.84 492.65 390.76Q492.24 390.4 491.71 390.18Q491.57 390.12 491.42 390.07Q490.9 389.9 490.33 389.9ZM497.83 389.9L495.44 389.9L495.44 402.5L497.83 402.5L497.83 397.42L503.27 402.5L506.38 402.5L499.69 396.19L506.38 389.9L503.27 389.9L497.83 394.97L497.83 389.9ZM506.38 389.9L511.55 397.82L508.61 402.5L511.24 402.5L519.11 389.9L516.48 389.9L512.84 395.68L509.12 389.9L506.38 389.9ZM470.88 397.76Q470.62 397.02 470.62 396.19Q470.62 395.37 470.88 394.64Q470.91 394.56 470.94 394.48Q471.22 393.77 471.7 393.22Q471.76 393.15 471.83 393.08Q471.97 392.94 472.12 392.81Q472.59 392.41 473.18 392.15Q473.26 392.11 473.34 392.08Q474.06 391.8 474.88 391.8Q475.73 391.8 476.46 392.09Q476.52 392.12 476.58 392.15Q477.18 392.41 477.64 392.81Q477.8 392.94 477.93 393.08Q478.03 393.19 478.13 393.3Q478.56 393.82 478.81 394.48Q478.84 394.54 478.86 394.6Q479.13 395.35 479.13 396.19Q479.13 397.05 478.86 397.8Q478.84 397.86 478.81 397.92Q478.56 398.55 478.15 399.06Q478.05 399.19 477.93 399.31Q477.8 399.45 477.64 399.58Q477.18 399.99 476.58 400.25Q476.52 400.27 476.46 400.3Q475.73 400.59 474.88 400.59Q474.06 400.59 473.34 400.31Q473.26 400.28 473.18 400.25Q472.59 399.99 472.12 399.58Q471.97 399.45 471.83 399.31Q471.75 399.22 471.67 399.14Q471.22 398.6 470.94 397.92Q470.91 397.84 470.88 397.76ZM412.23 395.79Q411.87 395.96 411.39 395.96L407.04 395.96L407.04 392L411.39 392Q411.87 392 412.23 392.17Q412.51 392.31 412.73 392.51Q412.79 392.57 412.84 392.63Q412.95 392.74 413.03 392.86Q413.16 393.05 413.24 393.26Q413.38 393.62 413.38 393.98Q413.38 394.04 413.37 394.11Q413.35 394.4 413.24 394.7Q413.22 394.75 413.19 394.81Q413.06 395.09 412.84 395.33Q412.77 395.41 412.69 395.48Q412.49 395.67 412.23 395.79ZM463.94 395.79Q463.58 395.96 463.11 395.96L458.75 395.96L458.75 392L463.11 392Q463.58 392 463.94 392.17Q464.22 392.31 464.45 392.51Q464.5 392.57 464.56 392.63Q464.66 392.74 464.75 392.86Q464.87 393.05 464.95 393.26Q465.09 393.62 465.09 393.98Q465.09 394.04 465.09 394.11Q465.07 394.4 464.95 394.7Q464.93 394.75 464.91 394.81Q464.78 395.09 464.56 395.33Q464.49 395.41 464.41 395.48Q464.2 395.67 463.94 395.79ZM485.3 395.17L485.3 392.05L489.97 392.05Q490.36 392.05 490.69 392.21Q490.93 392.32 491.13 392.51Q491.37 392.74 491.49 393.02Q491.61 393.29 491.61 393.61Q491.61 393.79 491.56 393.96Q491.53 394.09 491.48 394.22Q491.42 394.35 491.34 394.47Q491.24 394.61 491.13 394.72Q491.07 394.78 491 394.83Q490.82 394.97 490.6 395.06Q490.31 395.17 489.97 395.17L485.3 395.17ZM490.7 400.18Q490.37 400.33 489.97 400.33L485.3 400.33L485.3 397.22L489.97 397.22Q490.31 397.22 490.6 397.34Q490.81 397.42 490.98 397.54Q491.06 397.6 491.13 397.67Q491.21 397.75 491.28 397.84Q491.4 397.99 491.48 398.18Q491.51 398.25 491.54 398.34Q491.61 398.55 491.61 398.79Q491.61 399.1 491.49 399.37Q491.37 399.65 491.13 399.89Q490.93 400.07 490.7 400.18Z" fill="#292929" fill-opacity="1.000000" fill-rule="evenodd"/>
	<rect id="cursor-line" width="77.000000" height="77.000000" transform="translate(527.644775 408.464844) rotate(-18.803560)" fill="#FFFFFF" fill-opacity="0"/>
	<g clip-path="url(#clip194_241)">
		<path id="矢量 15" d="M588.33 433.54L603.34 452.21L590.84 462.26L575.83 443.59L566.52 455.05L554.87 404.72L601.53 426.91L588.34 433.54L588.33 433.54ZM594.32 451.22L578.36 431.37L586.92 427.07L564.12 416.23L569.81 440.82L575.86 433.39L591.82 453.24L594.32 451.22L594.32 451.22Z" fill="#444444" fill-opacity="1.000000" fill-rule="evenodd"/>
	</g>
</svg>
