<svg width="50.000000" height="50.000000" viewBox="0 0 50 50" fill="none" xmlns="http://www.w3.org/2000/svg" xmlns:xlink="http://www.w3.org/1999/xlink">
	<desc>
			Created with Pixso.
	</desc>
	<defs/>
	<rect id="Прямоугольник 87" rx="20.000000" width="50.000000" height="50.000000" fill="#78E58F" fill-opacity="1.000000"/>
	<rect id="person_24px" width="24.000000" height="24.000000" transform="translate(13.000000 13.000000)" fill="#FFFFFF" fill-opacity="0"/>
	<path id="icon/social/person_24px" d="M29 21C29 23.21 27.21 25 25 25C22.79 25 21 23.21 21 21C21 18.79 22.79 17 25 17C27.21 17 29 18.79 29 21ZM17 31C17 28.3398 22.33 27 25 27C27.67 27 33 28.3398 33 31L33 32C33 32.5498 32.55 33 32 33L18 33C17.45 33 17 32.5498 17 32L17 31Z" clip-rule="evenodd" fill="#000000" fill-opacity="0.540000" fill-rule="evenodd"/>
</svg>
