<svg width="24.000000" height="24.000000" viewBox="0 0 24 24" fill="none" xmlns="http://www.w3.org/2000/svg" xmlns:xlink="http://www.w3.org/1999/xlink">
	<desc>
			Created with Pixso.
	</desc>
	<defs>
		<clipPath id="clip246_342">
			<rect id="rowing" width="24.000000" height="24.000000" fill="white" fill-opacity="0"/>
		</clipPath>
	</defs>
	<rect id="rowing" width="24.000000" height="24.000000" fill="#FFFFFF" fill-opacity="0"/>
	<g clip-path="url(#clip246_342)">
		<path id="矢量 259" d="M8.5 14.5L4 19L5.5 20.5L9 17L11 17L8.5 14.5ZM15 1C13.9 1 13 1.89 13 3C13 4.1 13.9 5 15 5C16.1 5 17 4.1 17 3C17 1.89 16.1 1 15 1ZM21 21.01L18 24L15.01 20.99L15.01 19.5L7.91 12.4C7.59 12.46 7.3 12.48 7 12.48L7 10.32C8.66 10.35 10.61 9.44 11.67 8.28L13.06 6.72C13.42 6.34 14.06 6 14.72 6L14.75 6C15.99 6.01 17 7.02 17 8.26L17 14.01C17 14.85 16.65 15.62 16.08 16.16L12.5 12.59L12.5 10.32C11.87 10.84 11.06 11.34 10.21 11.71L16.5 18L18 18L21 21.01Z" fill="#444444" fill-opacity="1.000000" fill-rule="evenodd"/>
	</g>
</svg>
