<svg width="24.000000" height="24.000000" viewBox="0 0 24 24" fill="none" xmlns="http://www.w3.org/2000/svg" xmlns:xlink="http://www.w3.org/1999/xlink">
	<desc>
			Created with Pixso.
	</desc>
	<defs>
		<clipPath id="clip246_334">
			<rect id="person_search" width="24.000000" height="24.000000" fill="white" fill-opacity="0"/>
		</clipPath>
	</defs>
	<rect id="person_search" width="24.000000" height="24.000000" fill="#FFFFFF" fill-opacity="0"/>
	<g clip-path="url(#clip246_334)">
		<path id="矢量 67" d="M10 12C12.2 12 14 10.2 14 8C14 5.79 12.2 4 10 4C7.79 4 6 5.79 6 8C6 10.2 7.79 12 10 12Z" fill="#444444" fill-opacity="1.000000" fill-rule="evenodd"/>
		<path id="矢量 68" d="M10.35 14.01C7.62 13.9 2 15.27 2 18L2 20L11.54 20C9.06 17.24 10.31 14.11 10.35 14.01Z" fill="#444444" fill-opacity="1.000000" fill-rule="evenodd"/>
		<path id="矢量 69" d="M19.43 18.02C19.79 17.42 20 16.74 20 16C20 13.79 18.2 12 16 12C13.79 12 12 13.79 12 16C12 18.2 13.79 20 16 20C16.74 20 17.43 19.78 18.02 19.42L20.59 22L22 20.59L19.43 18.02ZM16 18C14.9 18 14 17.1 14 16C14 14.89 14.9 14 16 14C17.1 14 18 14.89 18 16C18 17.1 17.1 18 16 18Z" fill="#444444" fill-opacity="1.000000" fill-rule="evenodd"/>
	</g>
</svg>
