<svg width="21.000000" height="21.000000" viewBox="0 0 21 21" fill="none" xmlns="http://www.w3.org/2000/svg" xmlns:xlink="http://www.w3.org/1999/xlink">
	<desc>
			Created with Pixso.
	</desc>
	<defs>
		<clipPath id="clip194_86">
			<rect id="check_circle_outline" width="21.000000" height="21.000000" fill="white" fill-opacity="0"/>
		</clipPath>
	</defs>
	<rect id="check_circle_outline" width="21.000000" height="21.000000" fill="#FFFFFF" fill-opacity="0"/>
	<g clip-path="url(#clip194_86)">
		<path id="矢量 70" d="M14.51 6.63L8.75 12.39L5.6 9.26L4.37 10.5L8.75 14.87L15.75 7.87L14.51 6.63ZM10.5 1.75C5.66 1.75 1.75 5.66 1.75 10.5C1.75 15.33 5.66 19.25 10.5 19.25C15.33 19.25 19.25 15.33 19.25 10.5C19.25 5.66 15.33 1.75 10.5 1.75ZM10.5 17.5C6.63 17.5 3.5 14.36 3.5 10.5C3.5 6.63 6.63 3.5 10.5 3.5C14.36 3.5 17.5 6.63 17.5 10.5C17.5 14.36 14.36 17.5 10.5 17.5Z" fill="#444444" fill-opacity="1.000000" fill-rule="evenodd"/>
	</g>
</svg>
